<?xml version="1.0" standalone="no"?>
<!DOCTYPE svg PUBLIC "-//W3C//DTD SVG 20010904//EN"
 "http://www.w3.org/TR/2001/REC-SVG-20010904/DTD/svg10.dtd">
<svg version="1.0" xmlns="http://www.w3.org/2000/svg"
 width="512.000000pt" height="512.000000pt" viewBox="0 0 512.000000 512.000000"
 preserveAspectRatio="xMidYMid meet">
<metadata>
Created by potrace 1.14, written by Peter Selinger 2001-2017
</metadata>
<g transform="translate(0.000000,512.000000) scale(0.100000,-0.100000)"
fill="#000000" stroke="none">
<path d="M522 4115 c-172 -38 -318 -160 -406 -340 -40 -80 -81 -199 -92 -262
-2 -13 -6 -35 -9 -50 -3 -16 -8 -64 -10 -107 -4 -87 8 -125 54 -161 23 -18
385 -280 456 -329 17 -12 66 -48 110 -80 44 -33 123 -91 175 -130 52 -38 102
-76 110 -83 8 -7 53 -43 100 -80 177 -138 245 -213 300 -330 73 -152 87 -293
51 -493 -6 -30 -12 -68 -15 -85 -5 -35 -19 -118 -21 -125 -7 -25 -18 -114 -20
-150 -3 -95 59 -211 140 -265 75 -49 126 -57 338 -53 185 3 194 4 242 29 69
37 123 92 154 158 24 52 26 66 26 206 0 83 -2 198 -5 258 -3 59 -2 107 1 107
4 0 36 -11 71 -24 294 -111 644 -177 1013 -192 77 -3 150 -7 161 -9 l22 -5
-25 -82 c-44 -149 -18 -264 79 -360 81 -79 125 -90 352 -86 178 3 194 5 239
27 65 31 124 93 156 161 25 54 26 60 23 233 -2 156 -1 177 13 177 46 0 466
189 735 330 56 29 75 62 75 130 0 95 -7 101 -370 295 -99 53 -100 54 -101 92
-4 112 -146 482 -266 691 -142 247 -296 431 -484 578 -45 35 -87 64 -93 64 -6
0 -11 3 -11 8 0 26 -308 166 -415 188 -84 17 -127 25 -175 33 -54 9 -356 7
-435 -3 -22 -3 -61 -8 -88 -11 -458 -53 -833 -270 -1054 -608 -40 -61 -73
-102 -76 -95 -3 7 -42 105 -87 218 -99 246 -129 303 -215 398 -149 167 -487
268 -723 217z"/>
</g>
</svg>
